<?xml version="1.0" encoding="UTF-8"?>
<svg id="Calque_1" xmlns="http://www.w3.org/2000/svg" version="1.1" viewBox="0 0 1077.19 215.42">
  <!-- Generator: Adobe Illustrator 29.5.1, SVG Export Plug-In . SVG Version: 2.1.0 Build 141)  -->
  <defs>
    <style>
      .st0 {
        fill: #6ce3b7;
      }
    </style>
  </defs>
  <g id="_x32_CP9f3.tif">
    <g>
      <polygon points="704.08 37.66 790.74 143.49 790.74 37.66 840.91 37.66 840.91 194.89 774.78 194.89 685.83 89.06 685.83 194.89 637.18 194.89 637.18 37.66 704.08 37.66"/>
      <path d="M194.74,90.57h-50.17c.31-15.43-25.51-16.05-37.17-16.71-11.18-.63-60.82-3.68-53.82,15.68,3.25,9.01,55.61,7.6,65.88,8.61,39.95,3.93,91.26,5,80.68,60.51-8.56,44.93-99.85,41.47-133.83,37.7C32.65,192.65-2.44,181.07.13,140.46h48.65c.72,0,.58,7.63,7.07,11.87,12.35,8.07,69.95,8.3,84.49,4.35,9.3-2.52,15.68-7.63,8.71-16.92C108.59,124.58-7.97,149.34,3.55,75.07,11.11,26.27,123.14,31.68,157.05,42.63c22.05,7.12,38.95,23.37,37.69,47.94Z"/>
      <path d="M269.24,155.58v-40.82c21.14-.66,42.27-1.33,63.41-1.99,8.78-.49,15.66-7.72,15.77-16.15.12-8.93-7.37-16.62-16.69-16.63h-62.49v-42.33h75.26c67.09,0,64.47,117.93,3.04,117.93h-78.3Z"/>
      <rect x="209.95" y="37.66" width="50.17" height="157.24"/>
      <rect x="404.56" y="37.66" width="48.65" height="157.24"/>
      <rect x="576.36" y="37.66" width="48.65" height="157.24"/>
      <rect x="851.56" y="37.66" width="167.24" height="42.33"/>
      <rect x="851.56" y="95.11" width="167.24" height="42.33"/>
      <rect x="851.56" y="154.07" width="167.24" height="40.82"/>
      <rect x="460.81" y="154.07" width="106.43" height="40.82"/>
    </g>
  </g>
  <g>
    <path d="M1068.74,177.67c-1.82,0-3.38.51-4.65,1.51-1.24.99-2.3,2.55-3.15,4.65l-1.02,2.49c-.67,1.63-1.48,2.42-2.49,2.42-.74,0-1.34-.28-1.83-.87-.52-.6-.77-1.35-.77-2.29,0-.75.15-1.37.45-1.84.26-.44.85-.93,1.76-1.46l.43-.25-2.31-3.9-.42.24c-2.95,1.7-4.45,4.12-4.45,7.17,0,2.25.68,4.16,2.03,5.68,1.35,1.54,3.06,2.32,5.07,2.32,2.98,0,5.27-1.83,6.79-5.43l1-2.4c.26-.6.53-1.12.81-1.54.27-.41.56-.75.86-1,.29-.24.61-.43.96-.54.35-.12.75-.18,1.18-.18,1.08,0,1.95.33,2.65,1.02.7.69,1.04,1.53,1.04,2.58,0,1.33-.46,2.32-1.43,3.01-.34.26-1.09.61-2.8.81l-.53.06,1.05,4.79.45-.07c2.43-.36,4.35-1.29,5.71-2.76,1.36-1.5,2.05-3.42,2.05-5.7,0-2.41-.81-4.45-2.4-6.08-1.59-1.62-3.62-2.44-6.04-2.44Z"/>
    <polygon points="1050.78 152.31 1050.78 168.53 1055.3 168.53 1055.3 162.78 1076.73 162.78 1076.73 158.04 1055.3 158.04 1055.3 152.31 1050.78 152.31"/>
    <path d="M1067.35,122.74h-16.57v4.74h15.53c2.06,0,3.55.32,4.42.96,1.31.96,1.95,2.28,1.95,4.04s-.64,3.07-1.95,4.02c-.9.64-2.39.96-4.43.96h-15.53v4.74h16.57c2.75,0,5.05-.87,6.84-2.6,1.99-1.92,3-4.32,3-7.13s-1.01-5.21-3-7.15c-1.79-1.72-4.09-2.6-6.84-2.6Z"/>
    <path d="M1063.76,89.71c-3.95,0-7.19,1.35-9.63,4.02-1.21,1.32-2.08,2.81-2.58,4.43-.51,1.5-.77,3.56-.77,6.11v5.73h25.95v-5.66c0-2.58-.24-4.6-.72-6.02-.48-1.54-1.35-3.02-2.57-4.42-2.46-2.78-5.72-4.19-9.68-4.19ZM1057.45,97.08c1.6-1.72,3.72-2.59,6.31-2.59s4.65.86,6.26,2.62c.77.85,1.34,1.82,1.69,2.86.34,1.07.51,2.44.51,4.08v1.21h-16.92v-1.21c0-3.07.72-5.42,2.15-6.96Z"/>
    <rect x="1050.78" y="73.48" width="25.95" height="4.74"/>
    <path d="M1063.64,61.98c4.13,0,7.52-1.48,10.07-4.41,2.3-2.65,3.47-5.68,3.47-9.01,0-3.76-1.31-7.02-3.91-9.67-2.59-2.65-5.78-4-9.49-4s-6.89,1.34-9.52,3.98c-2.63,2.63-3.96,5.83-3.96,9.5s1.32,6.95,3.92,9.59c2.61,2.66,5.77,4.01,9.41,4.01ZM1063.76,39.67c2.49,0,4.63.86,6.35,2.56,1.71,1.7,2.57,3.81,2.57,6.29,0,2.27-.85,4.31-2.53,6.05-1.68,1.75-3.85,2.63-6.46,2.63s-4.6-.86-6.29-2.54c-1.71-1.69-2.57-3.79-2.57-6.24s.87-4.55,2.57-6.22c1.7-1.68,3.84-2.53,6.36-2.53Z"/>
  </g>
  <path class="st0" d="M1065.26,0h-55.31c-3.32,0-5.02,3.98-2.72,6.38l27.66,28.88c.28.29.6.53.94.71v179.45h3.57V35.97c.34-.18.65-.42.94-.71l27.66-28.88c2.3-2.4.6-6.38-2.72-6.38Z"/>
</svg>